<svg xmlns="http://www.w3.org/2000/svg" viewBox="0 0 512 512" width="512" height="512" role="img" aria-labelledby="matra-title matra-description"><title id="matra-title">Kami</title>
<desc id="matra-description">A taijitu symbol encircled by two colourful orbiting forms.</desc>
<rect width="100%" height="100%" fill="#fbfaf7"></rect>
<circle cx="256" cy="256" r="224" fill="#f3f0e8"></circle>
<circle cx="256" cy="256" r="154" fill="none" stroke="#d8d4ca" stroke-width="2" stroke-dasharray="3 10"></circle>
<line x1="440" y1="256" x2="460" y2="256" stroke="#bbb5a8" stroke-width="3" stroke-linecap="round"></line>
<line x1="415.34867429633675" y1="348" x2="425.74097914175" y2="354" stroke="#bbb5a8" stroke-width="2" stroke-linecap="round"></line>
<line x1="348" y1="415.3486742963367" x2="354" y2="425.74097914174996" stroke="#bbb5a8" stroke-width="2" stroke-linecap="round"></line>
<line x1="256" y1="440" x2="256" y2="460" stroke="#bbb5a8" stroke-width="3" stroke-linecap="round"></line>
<line x1="164.00000000000006" y1="415.34867429633675" x2="158.00000000000006" y2="425.74097914175" stroke="#bbb5a8" stroke-width="2" stroke-linecap="round"></line>
<line x1="96.65132570366328" y1="348" x2="86.25902085825001" y2="354" stroke="#bbb5a8" stroke-width="2" stroke-linecap="round"></line>
<line x1="72" y1="256" x2="52" y2="256" stroke="#bbb5a8" stroke-width="3" stroke-linecap="round"></line>
<line x1="96.65132570366325" y1="164.00000000000006" x2="86.25902085824998" y2="158.00000000000006" stroke="#bbb5a8" stroke-width="2" stroke-linecap="round"></line>
<line x1="163.99999999999991" y1="96.65132570366333" x2="157.99999999999991" y2="86.25902085825007" stroke="#bbb5a8" stroke-width="2" stroke-linecap="round"></line>
<line x1="255.99999999999997" y1="72" x2="255.99999999999997" y2="52" stroke="#bbb5a8" stroke-width="3" stroke-linecap="round"></line>
<line x1="348" y1="96.6513257036633" x2="354" y2="86.25902085825004" stroke="#bbb5a8" stroke-width="2" stroke-linecap="round"></line>
<line x1="415.34867429633664" y1="163.99999999999991" x2="425.7409791417499" y2="157.99999999999991" stroke="#bbb5a8" stroke-width="2" stroke-linecap="round"></line>
<circle cx="256" cy="256" r="66" fill="black" stroke="black" stroke-width="5"></circle>
<path d="M 256,190 A 66 66 0 0 0 256,322 L 256,256 Z" fill="white" stroke="black" stroke-width="0"></path>
<path d="M 256,190 A 66 66 0 0 1 256,322 L 256,256 Z" fill="black" stroke="black" stroke-width="0"></path>
<circle cx="256" cy="223" r="33" fill="white" stroke="black" stroke-width="0"></circle>
<circle cx="256" cy="289" r="33" fill="black" stroke="black" stroke-width="0"></circle>
<circle cx="256" cy="289" r="8.25" fill="white" stroke="black" stroke-width="0"></circle>
<circle cx="256" cy="223" r="8.25" fill="black" stroke="black" stroke-width="0"></circle></svg>
